<svg id="visual" viewBox="0 0 900 600" width="900" height="600" xmlns="http://www.w3.org/2000/svg" xmlns:xlink="http://www.w3.org/1999/xlink" version="1.1"><g><g transform="translate(312 194)"><path d="M0 -112L97 -56L97 56L0 112L-97 56L-97 -56Z" fill="none" stroke="#7fc3e3" stroke-width="2"></path></g><g transform="translate(245 508)"><path d="M0 -77L66.7 -38.5L66.7 38.5L0 77L-66.7 38.5L-66.7 -38.5Z" fill="none" stroke="#7fc3e3" stroke-width="2"></path></g><g transform="translate(23 33)"><path d="M0 -82L71 -41L71 41L0 82L-71 41L-71 -41Z" fill="none" stroke="#7fc3e3" stroke-width="2"></path></g><g transform="translate(633 284)"><path d="M0 -71L61.5 -35.5L61.5 35.5L0 71L-61.5 35.5L-61.5 -35.5Z" stroke="#7fc3e3" fill="none" stroke-width="2"></path></g><g transform="translate(828 413)"><path d="M0 -110L95.3 -55L95.3 55L0 110L-95.3 55L-95.3 -55Z" stroke="#7fc3e3" fill="none" stroke-width="2"></path></g><g transform="translate(809 42)"><path d="M0 -111L96.1 -55.5L96.1 55.5L0 111L-96.1 55.5L-96.1 -55.5Z" stroke="#7fc3e3" fill="none" stroke-width="2"></path></g><g transform="translate(643 590)"><path d="M0 -59L51.1 -29.5L51.1 29.5L0 59L-51.1 29.5L-51.1 -29.5Z" stroke="#7fc3e3" fill="none" stroke-width="2"></path></g><g transform="translate(34 370)"><path d="M0 -71L61.5 -35.5L61.5 35.5L0 71L-61.5 35.5L-61.5 -35.5Z" stroke="#7fc3e3" fill="none" stroke-width="2"></path></g><g transform="translate(551 9)"><path d="M0 -110L95.3 -55L95.3 55L0 110L-95.3 55L-95.3 -55Z" stroke="#7fc3e3" fill="none" stroke-width="2"></path></g><g transform="translate(28 595)"><path d="M0 -94L81.4 -47L81.4 47L0 94L-81.4 47L-81.4 -47Z" stroke="#7fc3e3" fill="none" stroke-width="2"></path></g></g></svg>