<svg id="visual" viewBox="0 0 1920 1080" width="1920" height="1080" xmlns="http://www.w3.org/2000/svg" xmlns:xlink="http://www.w3.org/1999/xlink" version="1.1"><g><g transform="translate(486 130)"><path d="M0 -219.5L190.1 -109.8L190.1 109.8L0 219.5L-190.1 109.8L-190.1 -109.8Z" fill="none" stroke="#7fc3e3" stroke-width="2"></path></g><g transform="translate(1812 914)"><path d="M0 -156L135.1 -78L135.1 78L0 156L-135.1 78L-135.1 -78Z" fill="none" stroke="#7fc3e3" stroke-width="2"></path></g><g transform="translate(461 718)"><path d="M0 -129L111.7 -64.5L111.7 64.5L0 129L-111.7 64.5L-111.7 -64.5Z" fill="none" stroke="#7fc3e3" stroke-width="2"></path></g><g transform="translate(1020 562)"><path d="M0 -97L84 -48.5L84 48.5L0 97L-84 48.5L-84 -48.5Z" fill="none" stroke="#7fc3e3" stroke-width="2"></path></g><g transform="translate(59 479)"><path d="M0 -111L96.1 -55.5L96.1 55.5L0 111L-96.1 55.5L-96.1 -55.5Z" fill="none" stroke="#7fc3e3" stroke-width="2"></path></g><g transform="translate(1682 128)"><path d="M0 -114L98.7 -57L98.7 57L0 114L-98.7 57L-98.7 -57Z" fill="none" stroke="#7fc3e3" stroke-width="2"></path></g><g transform="translate(794 1040)"><path d="M0 -134L116 -67L116 67L0 134L-116 67L-116 -67Z" fill="none" stroke="#7fc3e3" stroke-width="2"></path></g><g transform="translate(1357 906)"><path d="M0 -175L151.6 -87.5L151.6 87.5L0 175L-151.6 87.5L-151.6 -87.5Z" fill="none" stroke="#7fc3e3" stroke-width="2"></path></g><g transform="translate(61 984)"><path d="M0 -84L72.7 -42L72.7 42L0 84L-72.7 42L-72.7 -42Z" stroke="#7fc3e3" fill="none" stroke-width="2"></path></g><g transform="translate(979 114)"><path d="M0 -161L139.4 -80.5L139.4 80.5L0 161L-139.4 80.5L-139.4 -80.5Z" stroke="#7fc3e3" fill="none" stroke-width="2"></path></g><g transform="translate(12 14)"><path d="M0 -103L89.2 -51.5L89.2 51.5L0 103L-89.2 51.5L-89.2 -51.5Z" stroke="#7fc3e3" fill="none" stroke-width="2"></path></g></g></svg>